<?xml version="1.0" encoding="UTF-8" standalone="no"?>
<!DOCTYPE svg PUBLIC "-//W3C//DTD SVG 1.1//EN"
 "http://www.w3.org/Graphics/SVG/1.1/DTD/svg11.dtd">
<!-- Generated by graphviz version 2.40.1 (20161225.0304)
 -->
<!-- Title: G Pages: 1 -->
<svg width="638pt" height="260pt"
 viewBox="0.00 0.00 638.00 260.00" xmlns="http://www.w3.org/2000/svg" xmlns:xlink="http://www.w3.org/1999/xlink">
<g id="graph0" class="graph" transform="scale(1 1) rotate(0) translate(4 256)">
<title>G</title>
<polygon fill="#ffffff" stroke="transparent" points="-4,4 -4,-256 634,-256 634,4 -4,4"/>
<!-- CAM -->
<g id="node1" class="node">
<title>CAM</title>
<polygon fill="#ffffe0" stroke="#000000" points="427,-252 424,-256 403,-256 400,-252 373,-252 373,-216 427,-216 427,-252"/>
<text text-anchor="middle" x="400" y="-229.8" font-family="Times,serif" font-size="14.00" fill="#000000">CAM</text>
</g>
<!-- CAMCAM -->
<g id="node2" class="node">
<title>CAMCAM</title>
<polygon fill="#ffffe0" stroke="#000000" points="342,-180 339,-184 318,-184 315,-180 288,-180 288,-144 342,-144 342,-180"/>
<text text-anchor="middle" x="315" y="-157.8" font-family="Times,serif" font-size="14.00" fill="#000000">CAM</text>
</g>
<!-- CAM&#45;&gt;CAMCAM -->
<g id="edge1" class="edge">
<title>CAM&#45;&gt;CAMCAM</title>
<path fill="none" stroke="#000000" d="M378.5509,-215.8314C368.1822,-207.0485 355.5771,-196.3712 344.3354,-186.8489"/>
<polygon fill="#000000" stroke="#000000" points="346.3349,-183.9556 336.4422,-180.1628 341.8105,-189.297 346.3349,-183.9556"/>
</g>
<!-- CAMNew folder -->
<g id="node15" class="node">
<title>CAMNew folder</title>
<polygon fill="#ffffe0" stroke="#000000" points="439.855,-180 436.855,-184 415.855,-184 412.855,-180 360.145,-180 360.145,-144 439.855,-144 439.855,-180"/>
<text text-anchor="middle" x="400" y="-157.8" font-family="Times,serif" font-size="14.00" fill="#000000">New folder</text>
</g>
<!-- CAM&#45;&gt;CAMNew folder -->
<g id="edge14" class="edge">
<title>CAM&#45;&gt;CAMNew folder</title>
<path fill="none" stroke="#000000" d="M400,-215.8314C400,-208.131 400,-198.9743 400,-190.4166"/>
<polygon fill="#000000" stroke="#000000" points="403.5001,-190.4132 400,-180.4133 396.5001,-190.4133 403.5001,-190.4132"/>
</g>
<!-- CAMSIM -->
<g id="node16" class="node">
<title>CAMSIM</title>
<polygon fill="#ffffe0" stroke="#000000" points="512,-180 509,-184 488,-184 485,-180 458,-180 458,-144 512,-144 512,-180"/>
<text text-anchor="middle" x="485" y="-157.8" font-family="Times,serif" font-size="14.00" fill="#000000">SIM</text>
</g>
<!-- CAM&#45;&gt;CAMSIM -->
<g id="edge15" class="edge">
<title>CAM&#45;&gt;CAMSIM</title>
<path fill="none" stroke="#000000" d="M421.4491,-215.8314C431.8178,-207.0485 444.4229,-196.3712 455.6646,-186.8489"/>
<polygon fill="#000000" stroke="#000000" points="458.1895,-189.297 463.5578,-180.1628 453.6651,-183.9556 458.1895,-189.297"/>
</g>
<!-- CAMCAMCam1_240422_240510 -->
<g id="node3" class="node">
<title>CAMCAMCam1_240422_240510</title>
<polygon fill="#ffffe0" stroke="#000000" points="198.9425,-108 195.9425,-112 174.9425,-112 171.9425,-108 51.0575,-108 51.0575,-72 198.9425,-72 198.9425,-108"/>
<text text-anchor="middle" x="125" y="-85.8" font-family="Times,serif" font-size="14.00" fill="#000000">Cam1_240422_240510</text>
</g>
<!-- CAMCAM&#45;&gt;CAMCAMCam1_240422_240510 -->
<g id="edge2" class="edge">
<title>CAMCAM&#45;&gt;CAMCAMCam1_240422_240510</title>
<path fill="none" stroke="#000000" d="M287.7776,-151.6842C260.3902,-141.3058 217.3213,-124.9849 182.3632,-111.7376"/>
<polygon fill="#000000" stroke="#000000" points="183.3295,-108.361 172.7381,-108.0902 180.8489,-114.9067 183.3295,-108.361"/>
</g>
<!-- CAMCAMCam2_240423_240510 -->
<g id="node7" class="node">
<title>CAMCAMCam2_240423_240510</title>
<polygon fill="#ffffe0" stroke="#000000" points="388.9425,-108 385.9425,-112 364.9425,-112 361.9425,-108 241.0575,-108 241.0575,-72 388.9425,-72 388.9425,-108"/>
<text text-anchor="middle" x="315" y="-85.8" font-family="Times,serif" font-size="14.00" fill="#000000">Cam2_240423_240510</text>
</g>
<!-- CAMCAM&#45;&gt;CAMCAMCam2_240423_240510 -->
<g id="edge6" class="edge">
<title>CAMCAM&#45;&gt;CAMCAMCam2_240423_240510</title>
<path fill="none" stroke="#000000" d="M315,-143.8314C315,-136.131 315,-126.9743 315,-118.4166"/>
<polygon fill="#000000" stroke="#000000" points="318.5001,-118.4132 315,-108.4133 311.5001,-118.4133 318.5001,-118.4132"/>
</g>
<!-- CAMCAMCam3_240121_240510 -->
<g id="node11" class="node">
<title>CAMCAMCam3_240121_240510</title>
<polygon fill="#ffffe0" stroke="#000000" points="578.9425,-108 575.9425,-112 554.9425,-112 551.9425,-108 431.0575,-108 431.0575,-72 578.9425,-72 578.9425,-108"/>
<text text-anchor="middle" x="505" y="-85.8" font-family="Times,serif" font-size="14.00" fill="#000000">Cam3_240121_240510</text>
</g>
<!-- CAMCAM&#45;&gt;CAMCAMCam3_240121_240510 -->
<g id="edge10" class="edge">
<title>CAMCAM&#45;&gt;CAMCAMCam3_240121_240510</title>
<path fill="none" stroke="#000000" d="M342.35,-147.8784C345.2471,-146.5169 348.1687,-145.1986 351,-144 379.2401,-132.0453 411.1298,-120.5463 438.5346,-111.2548"/>
<polygon fill="#000000" stroke="#000000" points="439.6644,-114.5676 448.0277,-108.0632 437.4336,-107.9325 439.6644,-114.5676"/>
</g>
<!-- CAMCAMCam1_240422_240510clips -->
<g id="node4" class="node">
<title>CAMCAMCam1_240422_240510clips</title>
<polygon fill="#ffffe0" stroke="#000000" points="54,-36 51,-40 30,-40 27,-36 0,-36 0,0 54,0 54,-36"/>
<text text-anchor="middle" x="27" y="-13.8" font-family="Times,serif" font-size="14.00" fill="#000000">clips</text>
</g>
<!-- CAMCAMCam1_240422_240510&#45;&gt;CAMCAMCam1_240422_240510clips -->
<g id="edge3" class="edge">
<title>CAMCAMCam1_240422_240510&#45;&gt;CAMCAMCam1_240422_240510clips</title>
<path fill="none" stroke="#000000" d="M100.2705,-71.8314C88.0838,-62.8779 73.2177,-51.9558 60.0688,-42.2955"/>
<polygon fill="#000000" stroke="#000000" points="61.8527,-39.263 51.7216,-36.1628 57.7082,-44.9042 61.8527,-39.263"/>
</g>
<!-- CAMCAMCam1_240422_240510index -->
<g id="node5" class="node">
<title>CAMCAMCam1_240422_240510index</title>
<polygon fill="#ffffe0" stroke="#000000" points="126,-36 123,-40 102,-40 99,-36 72,-36 72,0 126,0 126,-36"/>
<text text-anchor="middle" x="99" y="-13.8" font-family="Times,serif" font-size="14.00" fill="#000000">index</text>
</g>
<!-- CAMCAMCam1_240422_240510&#45;&gt;CAMCAMCam1_240422_240510index -->
<g id="edge4" class="edge">
<title>CAMCAMCam1_240422_240510&#45;&gt;CAMCAMCam1_240422_240510index</title>
<path fill="none" stroke="#000000" d="M118.4391,-71.8314C115.5973,-63.9617 112.2063,-54.5712 109.0581,-45.8533"/>
<polygon fill="#000000" stroke="#000000" points="112.3377,-44.63 105.6492,-36.4133 105.7538,-47.0076 112.3377,-44.63"/>
</g>
<!-- CAMCAMCam1_240422_240510MP4 -->
<g id="node6" class="node">
<title>CAMCAMCam1_240422_240510MP4</title>
<polygon fill="#ffffe0" stroke="#000000" points="198,-36 195,-40 174,-40 171,-36 144,-36 144,0 198,0 198,-36"/>
<text text-anchor="middle" x="171" y="-13.8" font-family="Times,serif" font-size="14.00" fill="#000000">MP4</text>
</g>
<!-- CAMCAMCam1_240422_240510&#45;&gt;CAMCAMCam1_240422_240510MP4 -->
<g id="edge5" class="edge">
<title>CAMCAMCam1_240422_240510&#45;&gt;CAMCAMCam1_240422_240510MP4</title>
<path fill="none" stroke="#000000" d="M136.6077,-71.8314C141.7978,-63.7079 148.0232,-53.9637 153.7425,-45.0118"/>
<polygon fill="#000000" stroke="#000000" points="156.8015,-46.7246 159.236,-36.4133 150.9026,-42.9559 156.8015,-46.7246"/>
</g>
<!-- CAMCAMCam2_240423_240510clips -->
<g id="node8" class="node">
<title>CAMCAMCam2_240423_240510clips</title>
<polygon fill="#ffffe0" stroke="#000000" points="270,-36 267,-40 246,-40 243,-36 216,-36 216,0 270,0 270,-36"/>
<text text-anchor="middle" x="243" y="-13.8" font-family="Times,serif" font-size="14.00" fill="#000000">clips</text>
</g>
<!-- CAMCAMCam2_240423_240510&#45;&gt;CAMCAMCam2_240423_240510clips -->
<g id="edge7" class="edge">
<title>CAMCAMCam2_240423_240510&#45;&gt;CAMCAMCam2_240423_240510clips</title>
<path fill="none" stroke="#000000" d="M296.8314,-71.8314C288.2848,-63.2848 277.9443,-52.9443 268.6198,-43.6198"/>
<polygon fill="#000000" stroke="#000000" points="270.9592,-41.0095 261.4133,-36.4133 266.0095,-45.9592 270.9592,-41.0095"/>
</g>
<!-- CAMCAMCam2_240423_240510index -->
<g id="node9" class="node">
<title>CAMCAMCam2_240423_240510index</title>
<polygon fill="#ffffe0" stroke="#000000" points="342,-36 339,-40 318,-40 315,-36 288,-36 288,0 342,0 342,-36"/>
<text text-anchor="middle" x="315" y="-13.8" font-family="Times,serif" font-size="14.00" fill="#000000">index</text>
</g>
<!-- CAMCAMCam2_240423_240510&#45;&gt;CAMCAMCam2_240423_240510index -->
<g id="edge8" class="edge">
<title>CAMCAMCam2_240423_240510&#45;&gt;CAMCAMCam2_240423_240510index</title>
<path fill="none" stroke="#000000" d="M315,-71.8314C315,-64.131 315,-54.9743 315,-46.4166"/>
<polygon fill="#000000" stroke="#000000" points="318.5001,-46.4132 315,-36.4133 311.5001,-46.4133 318.5001,-46.4132"/>
</g>
<!-- CAMCAMCam2_240423_240510MP4 -->
<g id="node10" class="node">
<title>CAMCAMCam2_240423_240510MP4</title>
<polygon fill="#ffffe0" stroke="#000000" points="414,-36 411,-40 390,-40 387,-36 360,-36 360,0 414,0 414,-36"/>
<text text-anchor="middle" x="387" y="-13.8" font-family="Times,serif" font-size="14.00" fill="#000000">MP4</text>
</g>
<!-- CAMCAMCam2_240423_240510&#45;&gt;CAMCAMCam2_240423_240510MP4 -->
<g id="edge9" class="edge">
<title>CAMCAMCam2_240423_240510&#45;&gt;CAMCAMCam2_240423_240510MP4</title>
<path fill="none" stroke="#000000" d="M333.1686,-71.8314C341.7152,-63.2848 352.0557,-52.9443 361.3802,-43.6198"/>
<polygon fill="#000000" stroke="#000000" points="363.9905,-45.9592 368.5867,-36.4133 359.0408,-41.0095 363.9905,-45.9592"/>
</g>
<!-- CAMCAMCam3_240121_240510clips -->
<g id="node12" class="node">
<title>CAMCAMCam3_240121_240510clips</title>
<polygon fill="#ffffe0" stroke="#000000" points="486,-36 483,-40 462,-40 459,-36 432,-36 432,0 486,0 486,-36"/>
<text text-anchor="middle" x="459" y="-13.8" font-family="Times,serif" font-size="14.00" fill="#000000">clips</text>
</g>
<!-- CAMCAMCam3_240121_240510&#45;&gt;CAMCAMCam3_240121_240510clips -->
<g id="edge11" class="edge">
<title>CAMCAMCam3_240121_240510&#45;&gt;CAMCAMCam3_240121_240510clips</title>
<path fill="none" stroke="#000000" d="M493.3923,-71.8314C488.2022,-63.7079 481.9768,-53.9637 476.2575,-45.0118"/>
<polygon fill="#000000" stroke="#000000" points="479.0974,-42.9559 470.764,-36.4133 473.1985,-46.7246 479.0974,-42.9559"/>
</g>
<!-- CAMCAMCam3_240121_240510index -->
<g id="node13" class="node">
<title>CAMCAMCam3_240121_240510index</title>
<polygon fill="#ffffe0" stroke="#000000" points="558,-36 555,-40 534,-40 531,-36 504,-36 504,0 558,0 558,-36"/>
<text text-anchor="middle" x="531" y="-13.8" font-family="Times,serif" font-size="14.00" fill="#000000">index</text>
</g>
<!-- CAMCAMCam3_240121_240510&#45;&gt;CAMCAMCam3_240121_240510index -->
<g id="edge12" class="edge">
<title>CAMCAMCam3_240121_240510&#45;&gt;CAMCAMCam3_240121_240510index</title>
<path fill="none" stroke="#000000" d="M511.5609,-71.8314C514.4027,-63.9617 517.7937,-54.5712 520.9419,-45.8533"/>
<polygon fill="#000000" stroke="#000000" points="524.2462,-47.0076 524.3508,-36.4133 517.6623,-44.63 524.2462,-47.0076"/>
</g>
<!-- CAMCAMCam3_240121_240510MP4 -->
<g id="node14" class="node">
<title>CAMCAMCam3_240121_240510MP4</title>
<polygon fill="#ffffe0" stroke="#000000" points="630,-36 627,-40 606,-40 603,-36 576,-36 576,0 630,0 630,-36"/>
<text text-anchor="middle" x="603" y="-13.8" font-family="Times,serif" font-size="14.00" fill="#000000">MP4</text>
</g>
<!-- CAMCAMCam3_240121_240510&#45;&gt;CAMCAMCam3_240121_240510MP4 -->
<g id="edge13" class="edge">
<title>CAMCAMCam3_240121_240510&#45;&gt;CAMCAMCam3_240121_240510MP4</title>
<path fill="none" stroke="#000000" d="M529.7295,-71.8314C541.9162,-62.8779 556.7823,-51.9558 569.9312,-42.2955"/>
<polygon fill="#000000" stroke="#000000" points="572.2918,-44.9042 578.2784,-36.1628 568.1473,-39.263 572.2918,-44.9042"/>
</g>
</g>
</svg>
